<svg xmlns="http://www.w3.org/2000/svg" width="1280" height="293" fill="none" xmlns:v="https://vecta.io/nano"><path fill-rule="evenodd" d="M428.342 7.636c.317 3.705.845 12.799 1.172 20.209.737 16.648.87 17.169 4.289 16.774 2.653-.306 2.663-.34 2.503-8.291-.088-4.391-.472-14.158-.852-21.706L434.762.899h-3.498-3.499l.577 6.736zm25.265-4.99c-1.189 4.21-4.941 39.945-4.354 41.472.698 1.816 4.211 2.311 5.189.73.632-1.019 5.513-37.9 5.52-41.704.003-1.819-.553-2.245-2.929-2.245-1.938 0-3.099.592-3.426 1.746zm-49.588.689c-.944 1.136-.219 5.681 3.467 21.706 4.62 20.093 5.557 22.764 7.982 22.764 3.659 0 3.535-2.554-1.123-23.056-2.542-11.195-5.072-20.917-5.622-21.603-1.326-1.656-3.234-1.579-4.704.19zM284.135 4.493c-3.31 2.314-4.446 5.987-3.106 10.04 1.821 5.507 5.112 6.539 19.639 6.156 12.262-.322 12.527-.378 14.895-3.129 3.251-3.775 3.233-8.945-.044-12.214-2.36-2.356-2.965-2.45-15.776-2.45-10.597 0-13.79.327-15.608 1.598zm195.073 1.646c-.843 1.049-4.04 10.95-11.75 36.385-1.511 4.992-.174 7.943 3.128 6.897 1.564-.495 3.264-4.82 8.282-21.076 3.472-11.249 6.053-21.128 5.737-21.954-.7-1.819-4.014-1.974-5.397-.252zm-168.414 5.489c.315 2.217.177 2.246-11.281 2.246-9.714 0-11.7-.26-12.214-1.598-1.042-2.71 1.769-3.407 12.676-3.146 10.038.242 10.513.351 10.819 2.498zm68.511-.179c-.555 1.443 13.67 37.178 15.98 40.146 1.374 1.764 5.088 1.094 5.486-.99.319-1.668-14.048-37.052-16.027-39.476-1.428-1.748-4.718-1.555-5.439.32zm123.432 4.171c-2.606 2.964-19.595 37.472-19.092 38.782.734 1.911 3.415 2.55 5.042 1.203 2.011-1.666 19.276-36.256 19.276-38.619 0-1.045-.712-2.173-1.582-2.506-2.08-.796-1.887-.857-3.644 1.141zm-145.428 7.798c-.849 2.207.109 3.974 12.055 22.227 10.736 16.406 12.411 17.979 14.916 14.009 1.099-1.741.648-2.544-14.664-26.07-5.624-8.641-8.169-11.726-9.669-11.726-1.121 0-2.308.703-2.638 1.561zm166.016 6.631c-6.797 7.531-24.456 31.994-24.169 33.481.218 1.132 1.261 1.739 2.982 1.739 2.255 0 4.527-2.483 15.308-16.726 7.445-9.838 12.522-17.442 12.327-18.463-.499-2.613-4.103-2.63-6.448-.032zm-451.911 7.78c-1.691 1.081-3.679 3.094-4.419 4.474l-1.345 2.508H43.77c-23.793 0-26.311.481-28.584 5.461-1.511 3.309-1.511 5.728 0 9.038 2.507 5.493 2.159 5.461 60.252 5.461 47.631 0 53.547.171 53.547 1.542 0 .848 1.105 2.645 2.455 3.992 2.388 2.384 2.859 2.45 17.499 2.45h15.045v2.572c0 1.512 1.204 3.774 2.922 5.489 2.722 2.715 3.451 2.917 10.577 2.917s7.854-.202 10.576-2.917c1.718-1.715 2.923-3.977 2.923-5.489v-2.572h15.076 15.076l2.923-2.917c3.93-3.922 3.93-8.207 0-12.129-2.801-2.795-3.301-2.917-11.999-2.917-8.324 0-9.077-.161-9.077-1.94 0-1.068-1.085-3.201-2.412-4.74-2.297-2.669-2.883-2.816-12.444-3.142-9.367-.318-10.139-.504-11.642-2.792-.885-1.347-3.047-3.325-4.804-4.395-3.049-1.855-5.357-1.944-50.193-1.931-45.039.012-47.125.095-50.071 1.979zm265.97.366c-.319.83-.43 2.158-.246 2.949s6.623 8.246 14.31 16.566c10.353 11.204 14.499 15.05 15.999 14.835 1.217-.174 2.151-1.179 2.342-2.52.241-1.699-3.071-5.863-13.887-17.465-13.778-14.777-17.307-17.514-18.518-14.365zM167.315 42.92c1.334.607 3.289 2.739 4.343 4.74l1.917 3.637 10.44.287c5.743.158 10.897.742 11.454 1.3s1.012 2.45 1.012 4.204v3.19l9.499.248c12.057.315 13.999.769 13.999 3.263 0 1.088-.113 2.063-.25 2.168s-8.349.442-18.249.748l-17.999.558.239 3.903c.311 5.091-1.075 6.579-6.11 6.561-5.824-.022-6.751-.897-6.415-6.055l.287-4.409-16.927-.274c-10.332-.168-17.438-.698-18.239-1.361-.737-.611-1.07-2.055-.758-3.293.323-1.284-.032-2.692-.852-3.37-1.027-.85-16.504-1.235-57.311-1.423l-55.905-.258V54.79v-2.495l24.357-.499 24.357-.499 1.642-3.465c.903-1.906 2.767-4.033 4.142-4.726 3.344-1.686 87.652-1.857 91.328-.186zm361.147 15.999c-12.03 11.233-14.999 14.53-14.999 16.651 0 5.356 3.12 3.547 18.695-10.838 8.416-7.773 15.676-14.786 16.132-15.583 1.013-1.769-.921-4.359-3.201-4.287-.896.029-8.377 6.354-16.627 14.058zm-101.494-1.028c-15.125 2.307-31.233 9.511-43.419 19.419-4.669 3.795-5.637 5.102-5.386 7.263.499 4.287 3.318 3.747 9.563-1.833 6.584-5.883 22.46-14.109 32.242-16.705 10.005-2.656 30.172-2.402 40.297.507 32.052 9.21 54.628 35.503 58.677 68.336 1.385 11.237-.033 23.226-4.105 34.68-4.008 11.278-4.126 13.386-.77 13.774 2.289.266 2.882-.34 4.889-4.989 4.471-10.357 6.164-17.988 6.709-30.241 1.04-23.342-5.601-43.117-20.526-61.114-9.644-11.631-28.502-23.133-44.612-27.21-9.504-2.405-24.604-3.254-33.559-1.887zM313.23 64.969c-4.266 4.025-10.957 9.665-14.87 12.536-3.937 2.888-12.198 10.9-18.499 17.942-6.262 6.999-16.331 17.83-22.378 24.071l-10.993 11.346-6.006-.624c-3.303-.343-8.03-1.212-10.505-1.929-3.784-1.098-6.84-1.053-19.213.281l-14.713 1.586-4.786 5.138c-3.4 3.65-6.185 5.585-9.617 6.684l-4.832 1.546-10.668-5.315c-7.036-3.507-13.049-5.74-17.667-6.56-3.849-.684-10.805-2.319-15.456-3.634s-9.297-2.389-10.326-2.389c-2.076 0-19.361 9.762-30.214 17.065-3.85 2.589-10.824 8.139-15.499 12.331s-12.884 10.316-18.244 13.608c-8.803 5.409-11.402 7.798-26.923 24.758L14.641 212.18.567 219.5l-14.074 7.321-12.595 15.065-12.595 15.065-10.936 4.277c-8.937 3.495-13.421 6.083-24.526 14.153l-13.589 9.877-11.769.283c-9.693.232-11.954.576-12.818 1.945-.76 1.205-.687 2.098.265 3.243 1.166 1.401 6.642 1.581 48.201 1.581h46.887l16.237-8.042c13.993-6.93 16.997-8.845 21.737-13.86 5.414-5.729 5.764-5.914 22.499-11.879 15.994-5.7 18.162-6.206 36.668-8.557 18.897-2.401 20.209-2.716 33.432-8.012l13.764-5.513 15.565 2.46c8.56 1.352 23.678 3.987 33.596 5.855l18.031 3.396 13.432 8.722c7.388 4.796 14.797 9.344 16.467 10.104s11.584 3.404 22.034 5.873 23.049 6.172 27.998 8.229l9 3.739-31.89.499c-28.334.443-32.008.685-32.941 2.162-.762 1.206-.689 2.097.264 3.243 1.187 1.427 13.331 1.581 124.563 1.581l124.563-1.581c2.353-2.83-.115-4.845-6.672-5.448-5.509-.507-6.862-1.213-20.569-10.752-9.534-6.634-17.13-12.836-21.689-17.707-10.072-10.765-22.277-19.409-49.134-34.8-16.131-9.243-33.721-21.358-34.317-23.634-.36-1.375 2.224-.959 16.194 2.61 13.538 3.458 19.403 5.572 31.599 11.389 14.306 6.823 15.693 7.269 31.027 9.978l16.053 2.834 11.469 7.293c6.309 4.011 19.142 13.16 28.518 20.332s24.106 17.306 32.734 22.52l15.687 9.481-10.736.499-10.735.499v2.994 2.994l137.885.254 139.291-.912c.772-.639 1.27-2.1 1.106-3.246-.297-2.08-.413-2.085-59.741-2.583l-59.443-.499 8.705-7.984c4.789-4.391 9.902-9.78 11.364-11.975s5.281-7.526 8.489-11.845 5.833-8.33 5.833-8.912c0-2.572 6.807-10.611 10.753-12.701 2.351-1.245 6.631-4.724 9.511-7.732 15.49-16.18 22.099-22.25 26.196-24.059 4.035-1.781 4.884-1.838 9.24-.61 7.012 1.975 19.448 4.511 22.05 4.496 3.047-.018 6.215-1.804 24.61-13.875 4.044-2.655 9.926-3.21 17.995-1.699 4.348.815 7.613 5.253 9.611 13.066 1.094 4.274 1.046 5.666-.33 9.712-2.003 5.885-1.474 7.424 6.126 17.827 3.152 4.312 6.639 9.311 7.751 11.109 1.548 2.503 2.714 3.267 4.986 3.267 2.052 0 3.071-.549 3.309-1.783.354-1.835-3.938-9.2-8.332-14.299-1.365-1.584-2.482-3.226-2.483-3.649s-1.148-2.5-2.55-4.614l-2.549-3.844 2.205-4.529c2.052-4.214 2.101-4.76.699-7.861a145.42 145.42 0 0 1-2.831-6.825c-.728-1.921-2.148-4.689-3.155-6.15l-1.83-2.656 3.981-3.147c3.598-2.843 4.44-3.087 8.755-2.528 9.488 1.229 9.273 1.09 9.273 5.982 0 4.844 1.638 6.503 6.422 6.503 1.889 0 3.206 1.033 5.065 3.972 1.382 2.184 2.512 4.44 2.512 5.012 0 2.108 5.44 9.155 8.147 10.552 5.313 2.742 6.663 5.015 5.755 9.692-1.747 9.009-1.271 11.18 3.077 14.051 2.187 1.445 4.367 2.628 4.844 2.628s1.611.821 2.521 1.825c1.3 1.434 1.655 3.898 1.655 11.501 0 9.639.017 9.703 4.205 16.389 4.884 7.796 5.565 8.401 7.99 7.106 2.713-1.449 2.19-4.873-1.67-10.919-3.377-5.292-3.476-5.736-3.56-15.922l-.086-10.479-5.971-4.491c-6.547-4.923-6.345-4.189-4.288-15.621.515-2.864.097-3.517-4.66-7.27-2.873-2.267-6.162-5.342-7.307-6.833s-2.378-2.935-2.739-3.209-2.08-3.327-3.822-6.783-3.712-6.448-4.379-6.652-2.399-.629-3.85-.944c-1.753-.38-2.856-1.433-3.283-3.131-.547-2.173.434-3.748 6.532-10.488l7.174-7.93h5.254c4.762 0 5.544.331 8.356 3.528 2.348 2.669 3.104 4.485 3.104 7.459 0 4.391 1.532 5.597 10.027 7.887 4.351 1.174 4.656 1.509 7.891 8.685 5.048 11.194 5.726 11.803 15.949 14.325 11.324 2.792 13.63 2.544 13.63-1.465 0-3.265.367-3.105-12.805-5.567-4.923-.92-5.951-1.49-6.763-3.747-.526-1.465-2.638-5.898-4.694-9.852-3.624-6.972-3.916-7.254-9.736-9.364-6.615-2.398-7.461-3.188-7.484-6.993-.008-1.425-.915-3.404-2.015-4.397-2.596-2.344-2.522-3.653.358-6.354l2.359-2.21 5.178 2.037c2.848 1.119 7.323 2.036 9.945 2.036 4.148 0 5.213.461 8.21 3.546 3.5 3.605 11.191 8.43 13.435 8.43.679 0 2.674 2.697 4.433 5.992 2.521 4.72 4.515 6.871 9.39 10.135l6.518 4.399c.181.141.998 3.188 1.817 6.771 1.393 6.096 1.795 6.71 6.258 9.568 2.624 1.68 5.256 3.055 5.849 3.055s1.229.362 1.413.804c.836 2.017 16.6 12.545 21.2 14.157 9.476 3.323 9.018 2.958 6.765 5.375-1.086 1.165-3.8 5.486-6.031 9.603s-5.98 9.218-8.329 11.337c-4.299 3.876-15.124 10.619-17.048 10.619-.569 0-5.428 2.919-10.798 6.486s-10.046 6.487-10.392 6.487-3.091 1.572-6.1 3.493l-5.471 3.493h-27.886-27.885l-8.844-8.439c-8.079-7.71-9.403-8.579-15.342-10.078-3.575-.903-10.873-3.239-16.22-5.192-9.015-3.292-10.23-4.073-16.752-10.762l-7.032-7.212-6.74-.721c-9.574-1.023-13.235-2.807-18.438-8.984-6.536-7.757-9.608-10.023-15.684-11.561-4.429-1.122-5.636-1.916-6.881-4.521-1.03-2.155-3.58-4.309-8.01-6.767-7.242-4.017-8.443-4.266-10.226-2.121-1.887 2.269-.665 3.984 5.242 7.357 3.4 1.941 6.11 4.39 7.302 6.6 1.897 3.517 3.101 4.159 12.187 6.494 3.052.786 4.658 1.89 5.718 3.937.811 1.566 3.141 4.357 5.178 6.202l7.185 6.597c1.928 1.797 4.555 3.244 5.885 3.244 1.322 0 5.426.498 9.12 1.107 6.696 1.103 6.73 1.125 11.484 7.485 3.102 4.149 5.472 6.378 6.781 6.378 1.107 0 4.103.95 6.658 2.111s9.771 3.792 16.036 5.844c9.971 3.266 11.97 4.309 16.036 8.367l4.645 4.635h-4.702c-5.214 0-7.43 2.07-5.638 5.266.892 1.589 4.451 1.72 46.831 1.72l47.448-.606c2.34-.896 2.028-5.453-.417-6.09-1.673-.436-1.092-1.157 3.544-4.397 3.048-2.132 6.004-3.877 6.568-3.877s2.907-1.267 5.206-2.816 7.329-4.543 11.179-6.652c7.66-4.198 17.499-12.03 17.499-13.928 0-1.635 6.149-12.94 7.286-13.396.503-.201 3.861-3.457 7.463-7.236s7.155-6.869 7.905-6.869c.74 0 1.34-.377 1.34-.838s2.59-2.861 5.75-5.334c3.17-2.473 6.47-6.026 7.35-7.894.87-1.869 4.29-8.787 7.6-15.374l6.41-13.241c.22-.697 2.74-1.541 5.58-1.879 4.62-.545 5.91-1.291 12-6.944 3.75-3.481 7.09-6.342 7.43-6.355s.87 1.5 1.17 3.363 1.71 5.221 3.13 7.464c1.52 2.4 2.58 5.534 2.58 7.611 0 4.464 4.17 16.495 7.19 20.729 1.26 1.773 3.79 4.795 5.61 6.717 1.83 1.921 3.84 5.402 4.47 7.734.99 3.676 1.51 4.241 3.88 4.241 1.5 0 3.03-.485 3.4-1.077.68-1.092-1.38-9.983-2.52-10.898-.35-.275-1.69-2.071-2.99-3.992-1.29-1.922-3.72-4.948-5.39-6.728-3.55-3.794-6.61-12.77-6.63-19.44-.02-3.603-.72-5.716-3.02-8.982-3.79-5.408-5.63-13.784-3.35-15.248l5.71-3.572c3.24-2.013 5.18-4.516 8.91-11.477 3.74-6.986 6.05-9.948 10.71-13.755 5.42-4.434 6.15-5.522 8.53-12.649 2.05-6.141 3.34-8.358 6.07-10.433 1.9-1.45 4.69-3.774 6.19-5.165s4.06-3.217 5.68-4.056 3.57-2.142 4.32-2.894c2.01-2.009 3.46-1.666 2.72.648-.35 1.108-2.65 5.036-5.11 8.732-4.24 6.366-4.44 6.988-3.87 11.884.52 4.402.25 5.729-1.84 8.982-2.12 3.297-2.53 5.415-3.07 15.608-.61 11.648-.67 11.864-4.53 17.537-3.74 5.502-3.86 5.937-2.93 10.323.94 4.395.84 4.771-2.71 9.408-4.56 5.951-5.87 8.73-5.09 10.754 1.12 2.914 4.45 1.584 9.18-3.663 5.87-6.51 6.74-8.787 5.92-15.352-.61-4.875-.43-5.5 2.64-9.32 3.16-3.923 3.33-4.565 3.99-15.417.6-9.668 1.08-11.976 3.31-15.778 2.11-3.584 2.62-5.737 2.62-11.039 0-6.448.13-6.784 6.39-15.989 3.51-5.171 6.67-10.252 7.02-11.29 1-2.925 3.64-5.631 9.07-9.269l4.98-3.34 4.54 2.545c7.68 4.309 15.8 6.94 19.37 6.271 2.71-.507 3.7-.121 6.12 2.397 2.6 2.718 3.48 3.003 9.19 3.003 5.97 0 6.65.255 12.56 4.699 17.83 13.403 16.11 12.644 27.58 12.124l7.84-.356 4.9 7.236c2.69 3.98 5.4 7.235 6.01 7.235.6 0 6.09 2.695 12.18 5.988s11.46 5.988 11.93 5.988c.48 0 2.25 1.262 3.94 2.804s4.32 3.709 5.84 4.815l2.77 2.008-2.12 8.587c-1.17 4.723-2.12 11.119-2.12 14.213 0 7.342-.88 8.961-10.21 18.842-2.59 2.743-4.99 6.363-5.33 8.046-.33 1.683-.81 3.791-1.06 4.687-.57 2.012-12.81 6.416-20.4 7.332-3.02.366-6.17.849-7 1.074-1.01.274-2.62-1.695-4.92-6.019l-3.43-6.426 1.68-6.015c2.37-8.507 2.15-10.254-1.83-14.459-3.38-3.576-3.5-3.972-3.5-11.425v-7.72l-4.53-3.186c-2.49-1.752-4.99-3.186-5.56-3.186s-.82-.786-.55-1.747c.28-.96.77-3.992 1.11-6.736.52-4.243.19-5.799-2.22-10.394-3.34-6.401-5.38-8.033-7.66-6.143-2.25 1.865-1.97 4.491.98 9.154 2.45 3.873 2.51 4.359 1.5 10.9l-1.07 7.253c0 .225 2.48 2.379 5.5 4.788l5.5 4.381v6.338c0 5.82.29 6.678 3.56 10.482 2.48 2.9 3.37 4.744 2.96 6.146-.33 1.103-1.11 4.591-1.74 7.752-1.04 5.253-.95 6.083 1.04 9.617 3.51 6.218 3.1 6.951-4.07 7.291-6.21.296-6.25.316-6.25 3.292v2.994l8.5.325c11.99.459 32.89-2.483 41.5-5.84l7-2.729 1.51-5.359c1.55-5.52 5.88-13.087 8.31-14.525.75-.448 2.81-2.473 4.58-4.499 3.09-3.551 3.24-4.128 4.08-15.967.48-6.757 1.36-13.909 1.96-15.896.94-3.143 1.57-3.684 4.82-4.163l17.46-2.612 13.72-2.062 5.78 3.478c3.18 1.913 6.3 3.479 6.94 3.48s1.32.383 1.5.848c.19.464 4.33 2.809 9.2 5.211 9.45 4.65 21.38 14.58 24.3 20.217.87 1.677 2.88 6.639 4.47 11.025 3.07 8.48 4.78 10.993 8.98 13.159 3.28 1.695 6.42 4.264 15 12.289 6.05 5.658 7.2 7.364 10.42 15.469 3.01 7.553 4.17 9.379 6.79 10.693 2.56 1.278 3.66 2.922 5.67 8.483 2.34 6.426 2.93 7.171 8.65 10.89 3.78 2.458 7.24 5.718 8.99 8.483 1.57 2.47 4.99 7.281 7.6 10.692 2.62 3.41 4.76 6.654 4.76 7.207 0 .618-5.52 1.115-14.25 1.285-14.17.274-14.25.29-14.59 2.658-.18 1.311.27 2.763 1 3.229.74.465 12.87.852 26.97.861 27.13.016 28.54-.223 27.69-4.677-.29-1.524-1.58-1.839-8.54-2.084-7.97-.281-8.27-.381-10.44-3.493-1.24-1.762-2.49-3.428-2.8-3.703-1.13-1.02-6.04-7.872-6.04-8.432 0-.319-2.31-3.745-5.13-7.613-3.65-5.009-6.64-7.888-10.4-10.006-4.87-2.743-5.46-3.483-7.61-9.561-1.73-4.884-3.29-7.359-6.06-9.578-2.73-2.192-4.46-4.895-6.46-10.089-3.2-8.353-10.37-16.552-22.73-26.008-6.88-5.27-8.2-6.797-10.35-12.024-5.99-14.569-7.26-16.577-15.48-24.484-4.5-4.331-9.55-8.382-11.23-9.004-7.65-2.838-11.45-4.736-17.52-8.741-10.53-6.948-11.93-7.334-22.41-6.175-15.33 1.695-26.98 3.199-28.1 3.629-.59.224-5.39-2.669-10.67-6.429s-11.12-7.42-12.97-8.133c-7.05-2.71-16.09-7.589-16.71-9.025-.36-.823-2.68-4.279-5.16-7.68l-4.5-6.184-9.72-.054c-11.43-.063-14.29-1.217-25.35-10.247-6.87-5.602-7.26-5.774-13.06-5.774-5.51 0-6.23-.268-9.37-3.493-3.69-3.803-4.76-4.068-9.51-2.352-2.84 1.023-3.83.791-9.57-2.222-3.53-1.849-6.64-3.6-6.91-3.891-1.47-1.546-8.05-3.018-9.7-2.169-.99.512-3.41 1.712-5.37 2.666-4.98 2.425-6.05 3.385-9.25 8.301l-2.82 4.325-4.92-.675c-4.53-.622-5.26-.415-9.18 2.606-2.34 1.804-5.06 4.085-6.04 5.068-.97.982-4.12 3.29-7 5.129-6.69 4.283-7.03 4.752-9.82 13.478-2.15 6.696-2.93 7.839-9.37 13.605-6.59 5.902-9.61 10.355-13.4 19.78-.61 1.525-1.9 3.008-2.87 3.296-4.14 1.231-10.44 4.886-11.35 6.578-1.37 2.551-11.23 13.481-14.43 15.996-1.63 1.273-4.84 2.313-8.31 2.685-5.25.563-5.79.866-7.37 4.101-15.6 32.081-16.21 33.172-20.2 35.684-2.17 1.365-6.06 4.459-8.65 6.874l-4.7 4.392-7.187-2.587c-4.352-1.566-11.204-5.393-17.371-9.7-17.195-12.008-18.371-13.135-19.156-18.355-.836-5.57-1.465-7.326-2.622-7.326-2.226 0-12.818-8.83-14.367-11.976l-2.879-5.811c-.674-1.348-3.635-3.424-7.072-4.958-3.616-1.614-7.651-4.493-10.386-7.412-4.416-4.711-4.553-4.772-10.714-4.772-3.432 0-7.758-.613-9.613-1.362-7.903-3.192-9.583-2.979-14.782 1.875-4.747 4.431-4.868 4.477-11.869 4.477-6.109 0-7.332.306-8.965 2.245-1.041 1.236-4.8 5.055-8.355 8.489l-6.464 6.243-8.236-1.161c-9.272-1.31-11.52-.679-16.253 4.56l-2.632 2.912-9.05-1.834-9.048-1.833-8.62 5.159c-4.74 2.838-8.859 5.159-9.153 5.159-.914 0-11.921 7.201-12.235 8.005-.327.837-2.728.264-17.991-4.294l-10.29-3.072-4.21 2.057c-2.315 1.131-6.303 3.907-8.862 6.167s-5.124 4.111-5.7 4.111-2.292 1.684-3.816 3.742c-4.692 6.338-18.739 19.723-22.198 21.153-2.425 1.002-4.954 3.908-9.716 11.162-3.541 5.393-6.954 10.939-7.586 12.323s-1.467 2.517-1.856 2.517-1.93 1.909-3.426 4.241-8.418 9.743-15.38 16.467l-12.661 12.225-17.001-.006-17.001-.007-4.848-4.147c-3.519-3.01-5.759-6.14-8.163-11.404-2.735-5.99-4.338-8.05-9.187-11.808-3.344-2.592-7.127-6.695-8.783-9.524-3.576-6.111-19.24-18.14-46.514-35.723l-30.999-20.4c-6.874-4.66-15.689-10.347-19.587-12.634s-11.324-8.126-16.5-12.972-13.91-11.668-19.409-15.159-17.649-12.803-26.999-20.692c-10.404-8.78-22.479-17.821-31.123-23.307-10.496-6.661-14.963-10.129-17.392-13.504-1.933-2.687-6.171-6.394-10.375-9.076-3.908-2.494-11.156-7.746-16.106-11.673s-12.484-9.051-16.743-11.388l-7.742-4.248-7.757 7.317zm470.386-.944c-2.566 1.873-3.279 8.15-1.273 11.205 1.598 2.433 2.004 2.514 12.57 2.514 10.15 0 11.029-.157 12.476-2.219.856-1.219 1.557-3.59 1.557-5.266s-.701-4.047-1.557-5.266c-1.436-2.047-2.348-2.219-11.808-2.219-6.637 0-10.855.441-11.965 1.251zM541.961 76.088c-14.665 9.494-17.499 11.716-17.499 13.727 0 4.827 3.685 3.394 21.955-8.536 15.077-9.845 17.632-11.873 17.361-13.777-.192-1.348-1.111-2.334-2.318-2.487-1.164-.149-9.311 4.479-19.499 11.073zm400.433-8.868c-1.35 1.347-2.455 3.34-2.455 4.43 0 1.895-.819 1.994-18.979 2.29l-18.978.31-2.735 2.732c-2.319 2.316-2.735 3.569-2.735 8.246s.416 5.929 2.735 8.246l2.735 2.731 22.472.302c21.404.288 22.522.399 23.558 2.33.598 1.116 2.964 2.879 5.257 3.917 3.622 1.642 6.697 1.893 23.45 1.912 20.768.024 23.291-.455 28.421-5.369 2.63-2.524 3.06-2.594 15.8-2.594 13.99 0 17.39-.866 20.43-5.206 2.04-2.9 2-9.694-.07-12.64-2.5-3.565-7.43-5.107-16.33-5.107-7.43 0-8.04-.155-8.04-2.041 0-1.123-1.1-3.144-2.45-4.491l-2.45-2.45h-33.593-33.589l-2.454 2.45zm-614.301 2.032c3.276 1.916 9.536 6.368 13.912 9.895s11.004 8.343 14.729 10.705 8.656 6.615 10.958 9.45c3.002 3.698 7.937 7.515 17.456 13.505 8.087 5.087 20.118 14.117 30.795 23.109 9.639 8.119 22 17.55 27.471 20.958 5.676 3.536 13.835 9.894 18.999 14.804 5.273 5.013 12.879 10.92 18.218 14.148 5.04 3.049 14.715 9.339 21.499 13.978s20.205 13.504 29.827 19.701c25.457 16.395 39.008 26.825 43.371 33.385 1.985 2.984 5.976 7.282 8.87 9.552 4.193 3.289 5.995 5.695 8.875 11.857 1.988 4.251 4.676 8.47 5.972 9.378 2.214 1.546.503 1.647-28.049 1.647-38.711 0-38.149.134-63.019-14.987-9.817-5.971-24.974-16.357-33.681-23.082-21.266-16.426-44.693-31.086-60.24-37.697-7.879-3.351-22.847-11.49-40.997-22.294l-35.086-20.817c-3.575-2.09-12.827-6.018-20.56-8.729-8.215-2.879-23.28-9.532-36.239-16.004-12.198-6.092-22.964-11.077-23.922-11.077-1.104 0 2.313-4.114 9.325-11.227 6.085-6.175 15.067-15.718 19.959-21.207s12.728-12.962 17.415-16.607 10.529-8.697 12.981-11.227 4.627-4.6 4.832-4.6 3.053 1.568 6.329 3.484zm470.604 2.233c-2.062.215-5.437.215-7.5 0s-.375-.391 3.75-.391 5.813.177 3.75.391zm210.563.931c.37.362-.34 1.16-1.57 1.771-2.64 1.31-3.41 4.063-1.71 6.1.94 1.133 4.08 1.449 14.42 1.449 12 0 13.39.186 15.05 2.02 3.33 3.669.78 4.424-16.77 4.966l-16.15.499-1.93 3.661c-1.063 2.014-2.883 3.916-4.047 4.228s-10.229.574-20.143.581c-19.743.015-21.037-.31-24.003-6.035l-1.52-2.933h-22.85c-19.63 0-23.036-.222-24.166-1.581-.953-1.146-1.025-2.038-.264-3.243.913-1.447 4.004-1.727 23.833-2.162 19.524-.427 22.928-.73 23.799-2.11 1.341-2.125.186-4.936-2.295-5.584-1.091-.284-1.737-.915-1.436-1.402.627-1.011 60.742-1.23 61.752-.224zm305.11 7.778c-1.35 1.347-2.45 3.144-2.45 3.992 0 1.282-1.6 1.542-9.5 1.542-10.91 0-13.51 1.397-13.49 7.235.04 7.934-1.54 7.735 61.45 7.735 60.71 0 59.54.109 60.99-5.695.87-3.452-1.09-7.946-3.79-8.668-1.19-.319-11.05-.587-21.92-.594-17.14-.012-19.75-.218-19.75-1.556 0-.848-1.1-2.645-2.45-3.992l-2.45-2.45h-22.09-22.09l-2.46 2.45zm44.55 8.029l.51 2.994 21.96.269c12.62.155 22.38.686 22.94 1.248.64.639-18 .978-53.71.978-34.53 0-54.7-.355-54.7-.964 0-.543 4.7-1.088 10.75-1.247 10.61-.279 10.75-.314 11.1-2.778.19-1.372.87-2.83 1.5-3.24s9.69-.634 20.14-.499l18.99.246.52 2.994zm-805.959 6.632c-10.175 4.362-19.078 8.504-19.786 9.205-1.812 1.795-.432 4.622 2.256 4.622 3.791 0 39.988-15.649 40.361-17.449.386-1.868-1.565-4.551-3.204-4.407-.621.055-9.453 3.668-19.627 8.03zm7.099 20.714c-21.459 4.859-24.396 6.217-20.933 9.674 1.509 1.507 3.154 1.282 21.881-2.976 20.069-4.564 22.951-5.592 22.951-8.182 0-3.335-3.619-3.11-23.899 1.484zm-597.354-1.885c-3.386 2.659-4.278 6.978-2.25 10.893.874 1.687 1.991 3.067 2.482 3.067s2.766 1.796 5.056 3.992l4.163 3.992h23.995 23.994l3-2.994 3-2.994h20.845 20.846l3.076-2.584c4.156-3.49 4.35-9.308.431-12.933l-2.646-2.447H16.98c-50.306 0-51.786.055-54.274 2.008zm777.905 1.597c-1.437 1.434-2.898 4.129-3.248 5.988l-.636 3.381h-28.751c-27.13 0-28.894.112-31.266 1.973-1.383 1.086-2.751 3.212-3.041 4.724-.601 3.137 1.433 7.733 3.83 8.651.89.34 13.679.62 28.42.62h26.802l1.61 2.454c2.583 3.934 7.401 4.712 26.952 4.357l17.834-.324 2.901-3.244 2.902-3.243h26.93c14.812 0 27.66-.28 28.549-.62 2.438-.934 4.683-5.969 3.954-8.868-.93-3.699-5.025-6.48-9.543-6.48-3.649 0-3.865-.171-3.865-3.071 0-2.062-.959-4.027-2.923-5.988l-2.923-2.917h-40.938-40.938l-2.612 2.607zm444.869-.361l-1.54 7.762c-.89 4.618-1.96 6.465-6.54 11.341-5.07 5.394-5.47 6.18-5.47 10.64 0 4.916-1.64 7.625-10.35 17.146-3.7 4.051-9.33 11.101-9.77 12.241-1.56 4.059-15.73 23.051-19.5 26.126-3.9 3.192-5.71 5.994-11.08 17.185-3.52 7.353-6.67 14.689-7 16.3-.43 2.156-1.54 3.339-4.19 4.477-1.99.85-7.49 3.507-12.23 5.904-6.07 3.068-9.85 4.358-12.78 4.358-3.64 0-5.27.877-13.05 7.001-4.89 3.85-9.04 7.357-9.22 7.793s-2.8 2.256-5.83 4.046a205.72 205.72 0 0 0-11 7.122c-3.02 2.128-5.83 3.894-6.23 3.923s-3.16 1.605-6.13 3.501c-4.7 3.004-6.34 3.485-12.77 3.743-6.9.276-7.39.445-7.7 2.677-.19 1.311.26 2.763 1 3.229.73.465 10.62.852 21.96.861 17.61.013 20.82-.215 21.94-1.566.95-1.143 1.03-2.04.27-3.243-.79-1.251-2.84-1.736-8.3-1.958l-7.26-.296 4.86-3.498c2.67-1.926 6.26-4.101 7.97-4.836s3.96-2.038 5-2.894 7.01-5.621 13.27-10.587l11.37-9.03h5.83c5.59 0 5.95.16 9.02 3.973 1.76 2.184 4 4.226 4.98 4.536s5.29-.58 9.57-1.977c4.29-1.398 8.49-2.54 9.33-2.54.85 0 2.66 1.347 4.02 2.994s2.95 2.994 3.52 2.994c.58 0 4.93 1.578 9.67 3.508 6.96 2.833 11.5 3.863 23.61 5.353 14.56 1.792 15.32 1.793 26.89.008 7.47-1.151 14.69-2.981 19.36-4.902 4.09-1.687 9.02-3.451 10.94-3.921 1.93-.471 10.46-3.594 18.96-6.941l15.45-6.088 5.05 3.453c13.87 9.496 17.13 11.839 20.02 14.367 3.62 3.169 6.35 4.265 16.02 6.422l9.5 2.152c1.37.326 4.26 2.157 6.41 4.069l3.92 3.477h-84.08l-85.66.606c-1.87.717-2.08 3.492-.38 5.183.92.916 26.35 1.197 108.37 1.197 114.76 0 110.18.197 109.23-4.692-.31-1.635-1.93-1.819-18.19-2.068l-17.85-.273-5.89-4.614c-3.23-2.538-5.88-4.958-5.88-5.376 0-1.459-8.83-5.011-18.21-7.33-11.39-2.815-12.17-3.21-19.92-10.114-3.37-2.999-6.61-5.452-7.2-5.452-.6 0-3.65-1.797-6.79-3.992-3.13-2.196-6.65-3.992-7.8-3.992-1.16 0-6.65 1.796-12.2 3.992s-10.61 3.992-11.26 3.992c-.64 0-8.39 2.849-17.22 6.331-13.9 5.48-17.33 6.441-25.48 7.152-11.32.988-11.43.988-25.91.073-9.82-.618-12.82-1.245-20.5-4.283-4.95-1.957-10.35-4.755-12-6.218-6.04-5.357-5.54-5.256-15.05-3.043-8.16 1.899-9.04 1.933-12.12.472-1.83-.867-3.33-1.748-3.33-1.958s3.61-2.301 8.02-4.646 8.6-5.182 9.31-6.307c1.21-1.9 3.25-6.716 8.69-20.553 1.55-3.949 4.46-7.936 10.15-13.917 4.38-4.611 9.7-11.326 11.81-14.924s5.22-8.337 6.91-10.533 4.88-6.548 7.09-9.672 4.85-6.268 5.87-6.986c4.92-3.448 7.51-8.005 8.58-15.083 1.03-6.862 1.22-7.193 6.16-11.118 5.5-4.37 5.14-3.367 7.09-19.764l.57-4.741h-3.11c-2.41 0-3.21.501-3.59 2.246zM67.252 119.258c.329.328.356 1.227.06 1.996-.439 1.143-4.626 1.399-22.811 1.399H22.228l-2.669 3.493-2.67 3.493H-3.674-24.237l-3.206-3.493c-1.763-1.921-3.71-3.493-4.326-3.493-1.493 0-2.509-1.749-1.738-2.994.668-1.078 99.685-1.473 100.758-.401zm754.759 1.434c2.656 1.419 2.425 2.616-.803 4.16-3.08 1.473-4.024 4.164-2.222 6.332.879 1.057 3.486 1.449 9.64 1.449 5.37 0 8.212.363 7.819.998-.388.626-10.946 1.004-28.308 1.015l-27.689.018-2.355 2.477c-2.332 2.454-2.525 2.478-19.77 2.478h-17.416l-1.139-2.495-1.139-2.495h-28.778c-17.855 0-29.012-.374-29.39-.985-.396-.639 11.58-1.077 34.081-1.248 31.782-.24 34.783-.409 35.794-2.008 1.364-2.16-.197-5.074-2.993-5.586-3.258-.596-4.075-2.15-1.952-3.713 1.601-1.179 8.311-1.43 38.314-1.43 23.159 0 37.075.375 38.306 1.033zm-690.524 13.945c3.848 1.102 9.922 2.486 13.497 3.077s10.436 2.906 15.248 5.146l8.748 4.075-5.764 3.189c-3.171 1.754-12.508 7.58-20.748 12.948s-21.958 13.592-30.483 18.276-25.06 14.949-36.745 22.813-21.762 14.298-22.391 14.298-4.171.9-7.871 1.999c-7.716 2.294-11.071 5.002-52.986 42.766l-24.499 22.072-21.932.014-21.931.014 9.293-6.776c6.927-5.051 12.207-7.91 20.738-11.227l11.444-4.451 12.693-15.272 12.693-15.274 13.922-7.181 13.922-7.183 17.385-18.961c15.797-17.229 18.293-19.52 27.311-25.063 5.459-3.356 13.644-9.452 18.19-13.548s11.189-9.421 14.764-11.833c8.2-5.532 26.136-15.922 27.486-15.922.561 0 4.168.901 8.015 2.004zm96.177.111c1.548.615 8.959 1.49 16.471 1.945l13.655.827 21.141 10.559c11.627 5.807 27.98 13.029 36.341 16.049 8.753 3.161 18.383 7.443 22.701 10.095 18.016 11.062 61.682 36.641 64.694 37.896 1.816.758 3.302 1.548 3.302 1.758 0 1.177-8.233-2.02-20.999-8.158-12.55-6.034-17.247-7.67-34.945-12.175-24.129-6.142-23.894-6.192-21.184 4.426l1.632 6.396 10.829 7.561c5.954 4.158 15.629 10.305 21.498 13.66 28.638 16.369 43.12 26.543 52.043 36.564 3.923 4.405 10.266 9.696 17.708 14.769l11.597 7.905-71.411.257-71.41.255-16.091-6.978c-13.3-5.766-19.698-7.849-36.879-12.001l-20.787-5.025-15.545-9.87-15.544-9.869-19.999-3.664-34.93-6.014-14.931-2.351-15.068 5.838c-14.404 5.58-15.94 5.952-34.9 8.446-18.897 2.487-20.645 2.908-37.064 8.934-16.8 6.167-17.367 6.468-22.665 12.064-4.548 4.804-7.854 6.949-20.283 13.164-8.168 4.085-15.692 7.288-16.721 7.12-1.342-.219 5.385-6.805 23.758-23.259 37.826-33.879 36.985-33.227 46.061-35.673 6.764-1.824 10.291-3.803 27.747-15.56 10.999-7.409 27.605-17.688 36.9-22.843s22.796-13.241 29.999-17.97c12.65-8.304 29.172-18.108 32.909-19.525 1.68-.637 1.669-.486-.154 2.069-1.082 1.517-2.294 4.994-2.692 7.727-1.207 8.275-5.26 17.113-9.514 20.747-2.731 2.333-4.149 4.581-4.988 7.903-1.145 4.539-1.284 4.666-6.317 5.741-10.378 2.217-33.26 20.591-32.482 26.082.65 4.59 4.054 3.469 10.566-3.478 7.969-8.503 18.112-15.109 25.442-16.571 6.431-1.284 6.982-1.788 8.759-8.009.763-2.669 2.981-6.313 5.467-8.982 4.451-4.779 7.78-12.049 9.561-20.88 1.08-5.351 4.185-9.926 15.171-22.346 3.63-4.103 2.078-3.735 27.55-6.542.652-.072 2.452.372 4 .986zm388.31 2.162c-1.366.69-2.916 2.479-3.443 3.977-1.275 3.617.26 7.818 3.443 9.424 3.024 1.527 18.757 1.699 22.585.247 6.873-2.609 7.27-10.284.713-13.77-2.949-1.567-20.13-1.477-23.298.122zm805.896 1.96c-1.27 2.067-1.79 4.127-1.41 5.677 1.19 4.96 5.9 6.468 18.4 5.901 9.49-.43 11.51-1.803 11.51-7.822 0-6.083-1.86-6.929-15.22-6.967l-11.27-.032-2.01 3.243zm-868.909-1.221l-11.816.84c-.174.073-.174 1.367 0 2.876l.316 2.745 16.499-.347c9.075-.191 19.199-.64 22.499-.998 5.559-.603 6-.835 6-3.146v-2.495l-11-.092c-6.049-.051-16.174.227-22.498.617zm445.475 2.125c-3.247 1.772-4.5 3.985-4.5 7.948 0 2.839.628 4.221 2.635 5.796 2.464 1.936 3.919 2.069 22.539 2.069 19.81 0 19.93-.013 22.37-2.45 3.44-3.434 3.26-7.877-.47-11.599l-2.92-2.917-18.83.03c-11.68.019-19.584.445-20.824 1.123zm444.974 2.839c.39.634-2.34.998-7.5.998s-7.89-.364-7.5-.998c.34-.549 3.72-.998 7.5-.998 3.79 0 7.16.449 7.5.998zm-806.454.998c0 .592-3.667.998-9 .998s-8.999-.406-8.999-.998 3.667-.998 8.999-.998 9 .406 9 .998zm399.724 4.241c-.31.934-4.77 1.248-17.75 1.248-12.97 0-17.43-.314-17.74-1.248-.33-.967 3.66-1.247 17.74-1.247 14.09 0 18.08.28 17.75 1.247zm-496.052 9.398c-1.281 1.278-.653 4.262 1.083 5.145 2.523 1.284 40.567 5.641 42.567 4.876 1.809-.694 2.297-4.201.719-5.174-.994-.613-37.924-5.5-41.619-5.508-1.146-.002-2.384.295-2.75.661zm-3.999 17.964c-1.279 1.276-.654 4.261 1.083 5.166 3.636 1.897 39.207 12.286 40.937 11.957 2.475-.471 2.911-4.43.621-5.622-2.712-1.412-38.316-12.167-40.278-12.167-.934 0-1.997.3-2.363.666zm-616.71 17.221c-1.995 1.991-2.923 3.917-2.923 6.065s.928 4.074 2.923 6.065c2.827 2.821 3.24 2.917 12.576 2.917s9.749-.096 12.576-2.917c1.995-1.991 2.923-3.918 2.923-6.065s-.928-4.074-2.923-6.065c-2.827-2.821-3.24-2.917-12.576-2.917s-9.749.096-12.576 2.917zm609.405.576c-.317.823-.358 2.065-.091 2.758.775 2.014 38.275 20.805 40.115 20.101.886-.341 1.612-1.654 1.612-2.92 0-1.977-2.616-3.659-18.463-11.869-10.155-5.263-19.393-9.567-20.53-9.567s-2.327.674-2.643 1.497zM-59.005 198.5c0 1.839-.667 1.996-8.5 1.996s-8.5-.157-8.5-1.996.667-1.996 8.5-1.996 8.5.157 8.5 1.996z" fill="#dfcb45"/></svg>